<svg width="24" height="23" viewBox="0 0 24 23" fill="none" xmlns="http://www.w3.org/2000/svg">
<g filter="url(#filter0_d_37701_277)">
<path fill-rule="evenodd" clip-rule="evenodd" d="M4.95051 1.481C5.72844 1.15798 6.56249 0.991699 7.40482 0.991699C8.24715 0.991699 9.08119 1.15798 9.85912 1.481C10.6371 1.80402 11.3436 2.27743 11.9382 2.87408L11.9415 2.87742L11.9998 2.93653L12.0582 2.87743L12.0615 2.87408C12.6561 2.27743 13.3626 1.80402 14.1405 1.481C14.9184 1.15798 15.7525 0.991699 16.5948 0.991699C17.4371 0.991699 18.2712 1.15798 19.0491 1.481C19.8268 1.80391 20.5331 2.2771 21.1275 2.87346C23.6726 5.41916 23.7291 9.62831 20.7135 12.7005L20.707 12.7071L12.7069 20.7071C12.5194 20.8946 12.265 21 11.9998 21C11.7346 21 11.4802 20.8946 11.2927 20.7071L3.28615 12.7005C0.270454 9.62833 0.327075 5.41915 2.8721 2.87346C3.46656 2.2771 4.17285 1.80391 4.95051 1.481ZM7.40482 2.9917C6.82572 2.9917 6.25231 3.10602 5.71748 3.32809C5.18266 3.55017 4.69693 3.87564 4.28815 4.28584L4.28693 4.28706C2.59331 5.98068 2.38957 8.92921 4.71033 11.2963L11.9998 18.5857L19.2893 11.2963C21.6101 8.92922 21.4063 5.98068 19.7127 4.28706L19.7115 4.28584C19.3027 3.87564 18.817 3.55017 18.2822 3.32809C17.7473 3.10602 17.1739 2.9917 16.5948 2.9917C16.0157 2.9917 15.4423 3.10602 14.9075 3.32809C14.3734 3.54988 13.8882 3.87478 13.4798 4.28422C13.4792 4.28476 13.4787 4.2853 13.4782 4.28584L12.7115 5.06249C12.5236 5.25282 12.2673 5.35996 11.9998 5.35996C11.7324 5.35996 11.4761 5.25282 11.2882 5.06249L10.5215 4.28584C10.5209 4.2853 10.5204 4.28476 10.5199 4.28422C10.1114 3.87478 9.62628 3.54988 9.09215 3.32809C8.55733 3.10602 7.98392 2.9917 7.40482 2.9917Z" fill="#253D4E"/>
</g>
<defs>
<filter id="filter0_d_37701_277" x="-3.0083" y="0.991699" width="30.0161" height="28.0083" filterUnits="userSpaceOnUse" color-interpolation-filters="sRGB">
<feFlood flood-opacity="0" result="BackgroundImageFix"/>
<feColorMatrix in="SourceAlpha" type="matrix" values="0 0 0 0 0 0 0 0 0 0 0 0 0 0 0 0 0 0 127 0" result="hardAlpha"/>
<feOffset dy="4"/>
<feGaussianBlur stdDeviation="2"/>
<feComposite in2="hardAlpha" operator="out"/>
<feColorMatrix type="matrix" values="0 0 0 0 0 0 0 0 0 0 0 0 0 0 0 0 0 0 0.25 0"/>
<feBlend mode="normal" in2="BackgroundImageFix" result="effect1_dropShadow_37701_277"/>
<feBlend mode="normal" in="SourceGraphic" in2="effect1_dropShadow_37701_277" result="shape"/>
</filter>
</defs>
</svg>
